<svg xmlns="http://www.w3.org/2000/svg" version="1.1" xmlns:xlink="http://www.w3.org/1999/xlink" xmlns:svgjs="http://svgjs.dev/svgjs" viewBox="0 0 6.333427862881523 6.5684623356644565"><g transform="matrix(1,0,0,1,1.5325233229099366,1.7617432994293312)"><rect width="6.333427862881523" height="6.5684623356644565" x="-1.5325233229099364" y="-1.761743299429331" fill="#ffffff"></rect><g><path d=" M -0.03382627993764228 0.21312370861848587 L -0.4829883124299321 -0.2814715205006344 L -0.2928129637686366 -0.45417748510682476 Q -0.21061262991503632 -0.5288269496618814 -0.12518232391735484 -0.5460313274083304 Q -0.03975201791967342 -0.5632357051547795 0.03938692629857127 -0.5327795732841436 Q 0.1185258705168159 -0.5023234414135078 0.18052288345237144 -0.4340553675350941 Q 0.2488461221976775 -0.358821163669087 0.26845665023089205 -0.274940418914951 Q 0.2880671782641066 -0.1910596741608151 0.2598252254268834 -0.10948258444691283 Q 0.23158327258966033 -0.027905494733010516 0.15634906872365328 0.04041774401229553 L -0.03382627993764228 0.21312370861848587 Z M 0.04259350969802522 -0.3087960965020329 Q 0.007799267744397098 -0.3471098114337957 -0.031690216342494915 -0.36399942184378165 Q -0.07117970042938687 -0.3808890322537676 -0.11080808774714884 -0.37413671831013007 Q -0.15043647506491087 -0.36738440436649245 -0.18526712500287706 -0.3357532753177397 L -0.23960293890610437 -0.2864087140016852 L -0.005532583945333569 -0.028661904460735244 L 0.04880322995789374 -0.0780064657767896 Q 0.08433049289461927 -0.11027021740651749 0.09387731240717395 -0.14944703100135576 Q 0.1034241319197286 -0.18862384459619402 0.08977331920471587 -0.23024972608199135 Q 0.07612250648970317 -0.2718756075677887 0.04259350969802522 -0.3087960965020329 Z M 0.7761618365429381 -0.3565106005375074 Q 0.7061464186779556 -0.32638615693780115 0.6377536642473396 -0.32820414418843513 Q 0.5693609098167237 -0.3300221314390691 0.5091492901380626 -0.35687253821759446 Q 0.44893767045940164 -0.3837229449961198 0.40290779678362254 -0.4299923417924021 Q 0.3568779231078434 -0.47626173858868437 0.33121636004142696 -0.5359045019551509 Q 0.3048109835527955 -0.5972760410713702 0.3043474266635774 -0.6626383462633573 Q 0.30388386977435916 -0.7280006514553443 0.3270253927949331 -0.7896897146253118 Q 0.35016691581550696 -0.8513787777952794 0.39686341487266574 -0.9011778224553406 Q 0.4435599139298244 -0.950976867115402 0.5118465560450542 -0.9803574972928933 Q 0.5818619739100368 -1.0104819408925996 0.6502547283406528 -1.0086639536419657 Q 0.7186474827712687 -1.0068459663913316 0.7786128618680452 -0.9793774123198142 Q 0.8385782409648219 -0.951908858248297 0.8846081146406011 -0.9056394614520148 Q 0.9306379883163802 -0.8593700646557324 0.9559276446716891 -0.8005916891641421 Q 0.9819611144492131 -0.7400845379227993 0.9828568652758695 -0.6749081860863659 Q 0.9837526161025257 -0.6097318342499326 0.9606110930819518 -0.548042771079965 Q 0.9374695700613779 -0.4863537079099975 0.891391218297211 -0.43630842266805187 Q 0.8453128665330443 -0.3862631374261062 0.7761618365429381 -0.3565106005375074 Z M 0.5031089726891548 -0.6078132550046803 Q 0.5164976142890243 -0.5766952915091325 0.5376003678598883 -0.5514573648118504 Q 0.5587031214307523 -0.5262194381145683 0.5858464067726272 -0.5107512936524953 Q 0.612989692114502 -0.49528314919042227 0.6451180763203961 -0.4932282918186175 Q 0.6772464605262901 -0.4911734344468127 0.7135507512710959 -0.506793516313327 Q 0.7498550420159016 -0.5224135981798415 0.7707005587593481 -0.5477729122221947 Q 0.7915460755027944 -0.573132226264548 0.7981742045074269 -0.6041550736902429 Q 0.8048023335120595 -0.6351779211159378 0.8005551435012839 -0.667668028679816 Q 0.7963079534905083 -0.700158136243694 0.7832912186017463 -0.7304117118643655 Q 0.7699025770018768 -0.7615296753599133 0.7489857767865666 -0.7863354081197572 Q 0.7280689765712562 -0.8111411408796013 0.7009256912293814 -0.8266092853416742 Q 0.6737824058875065 -0.8420774298037472 0.6414077810997281 -0.8435141398825601 Q 0.6090331563119497 -0.8449508499613729 0.5735932534420203 -0.829702674805966 Q 0.5372889626972144 -0.8140825929394517 0.5168756398912062 -0.7889092322526522 Q 0.49646231708519795 -0.7637358715658527 0.48903008743201976 -0.7333914586594803 Q 0.48159785777884156 -0.703047045753108 0.48584504778961723 -0.6705569381892298 Q 0.4900922378003928 -0.6380668306253517 0.5031089726891548 -0.6078132550046803 Z M 1.192578179537804 -0.5049752291825849 L 1.1234283171749588 -1.1694970637638118 L 1.305937835123324 -1.1884889273705088 L 1.3585306881880232 -0.6830779545904206 L 1.659905379364298 -0.7144388780845561 L 1.676462388662444 -0.5553280162834172 L 1.192578179537804 -0.5049752291825849 Z M 1.7641296463175353 -0.5372420370237486 L 1.8321291702243656 -1.2018825690773125 L 2.014671288182739 -1.1832066434972677 L 1.9466717642759086 -0.5185661114437037 L 1.7641296463175353 -0.5372420370237486 Z M 2.561927693314507 -0.337805159366583 L 2.6878223458065778 -0.6664509821453013 L 2.4947230235710642 -0.47540181705373324 L 2.4033348803384795 -0.51040995571463 L 2.387295951714809 -0.7815738996647887 L 2.261401299222738 -0.45292807688607045 L 2.090048530661641 -0.518568336875252 L 2.3290464003658404 -1.1424681608669363 L 2.5162163475633457 -1.0707687999556765 L 2.5382323821964796 -0.7257699051979793 L 2.7859871165287644 -0.9674274675624523 L 2.9722783315798025 -0.8960647233690859 L 2.7332804618756033 -0.27216489937740157 L 2.561927693314507 -0.337805159366583 Z M 3.073363068894676 0.013137495911590136 Q 3.016396912108144 -0.037503375150944485 2.989048519756245 -0.10021652665855571 Q 2.961700127404346 -0.16292967816616696 2.9604916386680533 -0.228845708412794 Q 2.95928314993176 -0.29476173865942107 2.981674497900611 -0.35606617476838337 Q 3.004065845869462 -0.41737061087734567 3.0472043656634726 -0.46589733702883585 Q 3.091593277335571 -0.515830634952833 3.150594536363208 -0.5439606413188776 Q 3.2095957953908445 -0.5720906476849221 3.2752775557958422 -0.5772845818971066 Q 3.3409593162008395 -0.582478516109291 3.4058585098689615 -0.56129827686424 Q 3.4707577035370836 -0.5401180376191892 3.5263172885511085 -0.4907275584347418 Q 3.5832834453376403 -0.4400866873722072 3.6106318376895397 -0.377373535864596 Q 3.637980230041438 -0.3146603843569848 3.638524477865083 -0.24870530913675276 Q 3.6390687256887273 -0.1827502339165208 3.6166773777198764 -0.12144579780755849 Q 3.5942860297510255 -0.060141361698596185 3.551772705896058 -0.012317921433359469 Q 3.5080089901630034 0.03691209060438422 3.449359374078494 0.06535469493995066 Q 3.3907097579939833 0.09379729927551705 3.325027997588986 0.0989912334877015 Q 3.2593462371839883 0.10418516769988584 3.1944860884894712 0.08366916936748348 Q 3.129625939794954 0.06315317103508117 3.073363068894676 0.013137495911590136 Z M 3.1852045792635746 -0.34070196932568875 Q 3.162697525458004 -0.3153836774205634 3.1487863203625768 -0.28557164084063535 Q 3.1348751152671497 -0.25575960426070743 3.1323731406075632 -0.2246186094941174 Q 3.1298711659479763 -0.1934776147275274 3.141630848423531 -0.1635082073497675 Q 3.153390530899086 -0.13353879997200763 3.182928538121732 -0.10728057053217484 Q 3.212466545344378 -0.08102234109234208 3.2442715428429345 -0.07289384116204503 Q 3.2760765403414904 -0.06476534123174796 3.3069835034471335 -0.07191438229236777 Q 3.337890466552776 -0.0790634233529876 3.3655157464301464 -0.09668413912156468 Q 3.393141026307516 -0.11430485489014175 3.4150228841740433 -0.1389198609090136 Q 3.4375299379796145 -0.1642381528141389 3.4511285451055196 -0.1936985464509402 Q 3.4647271522314247 -0.2231589400877414 3.4672291268910116 -0.2542999348543314 Q 3.4697311015505985 -0.28544092962092144 3.457307178162395 -0.3153712920250764 Q 3.444883254774192 -0.34530165442923133 3.416048533437799 -0.3709346879300205 Q 3.3865105262151527 -0.39719291736985324 3.3550571716597233 -0.4050088193306285 Q 3.323603817104294 -0.41282472129140374 3.292970406994568 -0.4066915640865592 Q 3.2623369968848417 -0.40055840688171473 3.234711717007472 -0.3829376911131377 Q 3.207086437130102 -0.36531697534456053 3.1852045792635746 -0.34070196932568875 Z" fill="#102036" fill-rule="nonzero"></path></g><g><path d=" M -0.9890652496006648 1.603640518730958 L -0.5480435391964698 1.5806606285624132 L -0.540243322956161 1.7303595471644004 Q -0.5365859601546883 1.8005503264259133 -0.563647297530004 1.8489850925083395 Q -0.5907086349053197 1.8974198585907656 -0.6394818910477605 1.9236293038779873 Q -0.6882551471902014 1.9498387491652087 -0.7491285663727522 1.9530106213293177 Q -0.8162135589412776 1.9565061539183357 -0.867249336792447 1.9333174077658137 Q -0.9182851146436162 1.910128661613292 -0.9480920397924588 1.8640342310801865 Q -0.9778989649413015 1.817939800547081 -0.9812650333603559 1.7533394373329454 L -0.9890652496006648 1.603640518730958 Z M -0.7513941893471158 1.9095296076274955 Q -0.6985958155663319 1.9067784940157684 -0.6586189615573632 1.8850758790455484 Q -0.6186421075483947 1.8633732640753287 -0.5972906699004445 1.8248900971660722 Q -0.5759392322524943 1.7864069302568155 -0.5787550779492033 1.7323662417988368 L -0.5842896712151486 1.6261483368986716 L -0.9482878716332588 1.6451148377983438 L -0.9427532783673135 1.751332742698509 Q -0.9399050666281136 1.8059945884950852 -0.9137379678733583 1.8420017531537873 Q -0.887570869118603 1.8780089178124895 -0.8452605587846538 1.8951124534833652 Q -0.8029502484507047 1.912215989154241 -0.7513941893471158 1.9095296076274955 Z M -0.894643245683281 2.323964378840908 Q -0.9069247010233867 2.278960063995229 -0.8989118920950679 2.237443972451368 Q -0.890899083166749 2.195927880907507 -0.867201240772245 2.1610920835311695 Q -0.8435033983777409 2.126256286154832 -0.808729753319291 2.101292853811724 Q -0.773956108260841 2.076329421468616 -0.7331521961340922 2.0651942352935864 Q -0.6905481114135162 2.0535677909049532 -0.6477505821995305 2.058007177594355 Q -0.6049530529855448 2.062446564283757 -0.5671993980831236 2.081479668694464 Q -0.5294457431807023 2.1005127731051716 -0.5017551289981159 2.132285576745882 Q -0.4740645148155296 2.1640583803865927 -0.4624380704268961 2.2066624651071685 Q -0.4501566150867904 2.2516667799528474 -0.45876948154638497 2.2933466242345766 Q -0.46738234800597944 2.335026468516306 -0.4914620955350555 2.3696441134959394 Q -0.5155418430641314 2.404261758475573 -0.5500154593569435 2.4291433144497474 Q -0.5844890756497556 2.4540248704239214 -0.6246929302452287 2.4649963038610827 Q -0.6672970149658046 2.476622748249716 -0.7100945441797903 2.472183361560314 Q -0.7528920733937761 2.467743974870912 -0.7905638519272633 2.4490108992258426 Q -0.8282356304607505 2.430277823580773 -0.855626215877699 2.3984231435711285 Q -0.8830168012946475 2.3665684635614843 -0.894643245683281 2.323964378840908 Z M -0.7216895044833268 2.107198262482887 Q -0.7564928412973184 2.116695921279235 -0.7854846172010759 2.1368577858494158 Q -0.8144763931048333 2.157019650419597 -0.8336474348273929 2.184817402635772 Q -0.8528184765499525 2.2126151548519473 -0.8595778782796059 2.2457298871965876 Q -0.8663372800092592 2.2788446195412275 -0.8568396212129108 2.3136479563552195 Q -0.846850704202958 2.350251465763038 -0.8236072293688256 2.3751785612142746 Q -0.800363754534693 2.400105656665511 -0.7692118399990264 2.41384815013513 Q -0.7380599254633597 2.427590643604749 -0.7033093270241213 2.429712784060704 Q -0.6685587285848829 2.4318349245166586 -0.6355555643647184 2.422828523933914 Q -0.6007522275507268 2.413330865137566 -0.5720604804126073 2.393250876936319 Q -0.5433687332744876 2.373170888735072 -0.5239795391552242 2.3449912313843253 Q -0.5045903450359608 2.316811574033578 -0.4980490957030112 2.2840787468235098 Q -0.49150784637006173 2.251345919613441 -0.5010055051664102 2.2165425827994496 Q -0.5108306694384948 2.1805391309229067 -0.5337741155069895 2.155530159102736 Q -0.556717561575484 2.130521187282566 -0.5878694761111507 2.1167786938129467 Q -0.6190213906468174 2.103036200343328 -0.6538538654549899 2.100614031121735 Q -0.6886863402631623 2.0981918619001423 -0.7216895044833268 2.107198262482887 Z M -0.7657251103182355 2.6881097269205187 L -0.3703769584904739 2.4913152573682136 L -0.350974686844472 2.5302932441681336 L -0.7117994789351615 2.7099028445482656 L -0.5981576021514359 2.9382024815192267 L -0.6326809618885081 2.9553873506913995 L -0.7657251103182355 2.6881097269205187 Z M -0.5498968921991693 3.084462305631687 L -0.19537509526879526 2.82113262651963 L -0.08633435490408448 2.9679346100372777 Q -0.06927355879259911 2.9909036278665697 -0.06448161723747647 3.017174547704525 Q -0.05968967568235384 3.043445467542481 -0.06553295368953627 3.069480432169512 Q -0.0713762316967188 3.095515396796544 -0.0851654374896158 3.118154651832899 Q -0.0989546432825128 3.1407939068692543 -0.11942702873905553 3.1560002686207955 Q -0.1483879642629452 3.1775117071961465 -0.18356089293797573 3.18387955600255 Q -0.21873382161300636 3.1902474048089533 -0.251773064910086 3.1791467668833033 Q -0.2848123082071657 3.168046128957654 -0.30780729427047204 3.137087887535565 L -0.39311127482789887 3.0222427983891054 L -0.5239348111599523 3.1194151588501744 L -0.5498968921991693 3.084462305631687 Z M -0.3621530334058099 2.999247812325799 L -0.2779617134643495 3.1125949220486087 Q -0.2623844648408194 3.1335666339797013 -0.23940246289452027 3.140515356635003 Q -0.2164204609482212 3.1474640792903052 -0.19164030456606795 3.142229815094066 Q -0.1668601481839147 3.136995550897827 -0.14538910977827235 3.121047415402308 Q -0.12341874489808013 3.1047283930348004 -0.11236140277951301 3.0810190492802176 Q -0.10130406066094577 3.0573097055256353 -0.10262236479776099 3.0331075273550065 Q -0.10394066893457621 3.008905349184378 -0.11840525694213994 2.9894316166769346 L -0.20037125565166747 2.879080465801424 L -0.3621530334058099 2.999247812325799 Z M 0.3077469912382115 3.368529590956435 L 0.012337792940195214 3.6968002566591798 L -0.019564567529508192 3.668091475416133 L 0.11857043787181776 3.5145902627213284 L -0.0760801962984014 3.339425090209406 L -0.21421520169972735 3.492926302904211 L -0.24657991521971628 3.463801452367787 L 0.04882928307829998 3.1355307866650417 L 0.08119399659828891 3.164655637201466 L -0.05028390010899719 3.3107592010917015 L 0.14436673406122197 3.485924373603624 L 0.27584463076850807 3.3398208097133883 L 0.3077469912382115 3.368529590956435 Z M 0.1657817028806851 3.801832798179044 L 0.4104133788137514 3.434159617854208 L 0.4466628472964817 3.4582782337912708 L 0.20203117136341542 3.8259514141161066 L 0.1657817028806851 3.801832798179044 Z M 0.5520367021414069 3.6195428147639563 L 0.3992354091318495 3.9470313104070973 L 0.35977896387363983 3.9286215160685964 L 0.5465068778784344 3.528420428449612 L 0.5791993610923797 3.5436742580443696 L 0.686172293119997 3.9999196831101065 L 0.8416035567493402 3.6667945524300785 L 0.8810600020075499 3.6852043467685793 L 0.6945950850647338 4.084841770883875 L 0.6579569573249677 4.067746961855267 L 0.5520367021414069 3.6195428147639563 Z M 1.4973411345354843 4.25447204705479 L 1.539838789893981 3.897476663968355 L 1.3480926640995539 4.15590059057506 L 1.320916544971867 4.152665474942234 L 1.194578549158138 3.856375990360397 L 1.1520808937996416 4.213371373446832 L 1.1088461588237757 4.208224598576426 L 1.1610491610807525 3.76970085810693 L 1.2055191741987858 3.774994683687919 L 1.3408718742173207 4.095533795650395 L 1.5489264977213772 3.815874781230002 L 1.5927788717683269 3.8210950814556996 L 1.54057586951135 4.259618821925196 L 1.4973411345354843 4.25447204705479 Z M 1.9451778047112223 4.236870650365485 Q 1.898857963990405 4.24241094418424 1.8589683760099718 4.228389113535168 Q 1.8190787880295385 4.214367282886095 1.7881001463844473 4.185811297964803 Q 1.757121504739356 4.157255313043512 1.737534503024565 4.119193144045611 Q 1.717947501309774 4.08113097504771 1.7129243015807691 4.039134319460836 Q 1.7076794900990142 3.995284870245129 1.7183547843218239 3.9536030426189748 Q 1.7290300785446333 3.9119212149928204 1.7534003174106338 3.8773714106574255 Q 1.7777705562766344 3.8428216063220306 1.8132648444941883 3.820096363332588 Q 1.8487591327117425 3.7973711203431457 1.8926085819274494 3.792126308861391 Q 1.9389284226482664 3.7865860150426354 1.97889188121295 3.8012254435679855 Q 2.0188553397776334 3.8158648720933357 2.049562117776711 3.844766591244891 Q 2.0802688957757884 3.873668310396446 2.099818962198454 3.9114216804562085 Q 2.1193690286211204 3.9491750505159704 2.124318357765875 3.990554108226567 Q 2.12956316924763 4.034403557442274 2.1188878750248206 4.076085385068429 Q 2.108212580802011 4.117767212694583 2.084151140874149 4.152280081737853 Q 2.0600897009462873 4.186792950781123 2.0245584774366083 4.209209394832426 Q 1.989027253926929 4.23162583888373 1.9451778047112223 4.236870650365485 Z M 1.7561561529201986 4.033963378563331 Q 1.7604406468067026 4.06978405538743 1.776127082713355 4.101422000667528 Q 1.7918135186200073 4.133059945947626 1.8164950735360998 4.156104787364392 Q 1.8411766284521924 4.1791496287811585 1.8729399547657808 4.190698053413831 Q 1.9047032810793691 4.2022464780465025 1.9405239579034679 4.197961984159998 Q 1.978197428356399 4.193455878520744 2.006267225457484 4.174124409339538 Q 2.034337022558569 4.154792940158332 2.0525046494595167 4.125996495259908 Q 2.070672276360465 4.097200050361485 2.077873897168207 4.063137692402273 Q 2.0850755179759495 4.0290753344430605 2.0810126358421956 3.9951074512477946 Q 2.0767281419556913 3.959286774423696 2.0610786413411644 3.9279576280817365 Q 2.045429140726637 3.896628481739777 2.0204018515802806 3.873311776676997 Q 1.995374562433924 3.849995071614217 1.9639569703505995 3.838718510627559 Q 1.9325393782672748 3.827441949640901 1.8967187014431763 3.8317264435274048 Q 1.8596628288665227 3.836158678582409 1.8315560964733126 3.8551813488254765 Q 1.8034493640801028 3.874204019068544 1.785281737179155 3.9030004639669675 Q 1.767114110278207 3.9317969088653912 1.7596036905323258 3.9658962021167286 Q 1.7520932707864447 3.9999954953680654 1.7561561529201986 4.033963378563331 Z M 2.257030837218382 3.8078276284826633 L 2.3780752311580673 4.148334903911213 L 2.3370502582148687 4.162918565831657 L 2.1891302587360792 3.7468081259792125 L 2.22312237917473 3.7347245203879873 L 2.619567597009494 3.9845930564943695 L 2.4964398227954594 3.6382250706453627 L 2.537464795738658 3.623641408724919 L 2.6851764571900123 4.039165777535318 L 2.647081839457042 4.0527077493185875 L 2.257030837218382 3.8078276284826633 Z M 2.8519445182582404 3.9519252722231717 L 2.6432960877027134 3.5627028977035207 L 2.681670124627186 3.5421319256769195 L 2.8903185551827133 3.9313543001965705 L 2.8519445182582404 3.9519252722231717 Z M 3.0662872290721443 3.334299006910025 L 2.9378322410991196 3.4252021092820013 L 3.170659159427343 3.7542093512050063 L 3.1351182536640554 3.779360407197253 L 2.902291335335832 3.450353165274248 L 2.7738363473628067 3.541256267646224 L 2.7515596977696744 3.509777179684455 L 3.044010579479012 3.3028199189482566 L 3.0662872290721443 3.334299006910025 Z M 3.5353612823359173 3.4386807014986256 Q 3.5032502109137367 3.472520051257739 3.463597466253385 3.4871982938262795 Q 3.4239447215930325 3.50187653639482 3.3818698728574286 3.4996793525436027 Q 3.3397950241218246 3.4974821686923856 3.300417640473889 3.480695239192227 Q 3.2610402568259533 3.463908309692068 3.2303592463776907 3.434794271602624 Q 3.1983246619390626 3.4043957906562934 3.1799265116202853 3.3655004859801805 Q 3.1615283613015075 3.3266051813040676 3.1582239157931604 3.284454521025937 Q 3.1549194702848133 3.2423038607478065 3.1677263308029353 3.202150834851003 Q 3.1805331913210573 3.1619978089541996 3.210931672267388 3.129963224515572 Q 3.2430427436895686 3.0961238747564583 3.2831466796800424 3.0818737798068803 Q 3.323250615670516 3.0676236848573026 3.3653369862616995 3.070260538183062 Q 3.407423356852883 3.0728973915088207 3.4465751448357578 3.0894702471994986 Q 3.4857269328186327 3.106043102890176 3.5159567519367743 3.1347289933606572 Q 3.547991336375402 3.165127474306988 3.566389486694179 3.204022778983101 Q 3.584787637012957 3.242918083659214 3.5883061563307854 3.2848431482722837 Q 3.5918246756486134 3.3267682128853533 3.5787922194654307 3.3667071649726754 Q 3.565759763282248 3.406646117059998 3.5353612823359173 3.4386807014986256 Z M 3.2603295797050587 3.403210878494118 Q 3.2864986768521067 3.428043440393938 3.3187722177738936 3.4423767027361176 Q 3.3510457586956806 3.4567099650782973 3.3847553655594074 3.458686394710984 Q 3.4184649724231346 3.4606628243436712 3.4502843195307884 3.4492696614973566 Q 3.482103666638442 3.437876498651042 3.5069362285382617 3.411707401503994 Q 3.5330532332949685 3.3841847303665813 3.5423130138965466 3.3513841865721465 Q 3.5515727944981244 3.318583642777712 3.547168255822163 3.2848212680826174 Q 3.542763717146202 3.2510588933875226 3.5265572337910847 3.220245625640328 Q 3.5103507504359674 3.189432357893133 3.4855352272792843 3.1658842388502006 Q 3.4593661301322363 3.141051676950381 3.42731818487551 3.1269324884176823 Q 3.395270239618784 3.112813299884984 3.361120963280515 3.1108483921078767 Q 3.326971686942246 3.1088834843307693 3.295592009309134 3.1202651253215046 Q 3.2642123316760223 3.1316467663122394 3.239379769776203 3.1578158634592874 Q 3.2136909126384583 3.1848873432665785 3.20420553637182 3.217473813251532 Q 3.194720160105181 3.2500602832364858 3.199124698781142 3.28382265793158 Q 3.203529237457104 3.317585032626675 3.2195216470027397 3.3486238960389305 Q 3.2355140565483755 3.379662759451186 3.2603295797050587 3.403210878494118 Z M 3.7833857584473827 3.13656215210242 L 3.4077558139233686 2.904333021335227 L 3.5058807987545766 2.745616143367334 Q 3.5209266297620285 2.7212795554122566 3.5434078634452817 2.707389999908967 Q 3.5658890971285344 2.693500444405677 3.592405299134021 2.6890525476887746 Q 3.6189215011395075 2.684604650971872 3.644889014288226 2.6893240686129736 Q 3.6708565274369445 2.694043486254075 3.6925478340925566 2.7074539008476735 Q 3.7195297033470984 2.724135148268979 3.736959111028254 2.7491704930615732 Q 3.7543885187094093 2.774205837854167 3.759177806227732 2.8031269168462596 Q 3.7639670937460545 2.8320479958383515 3.753557658771991 2.860713529140922 L 3.955431565184768 2.858278559398714 L 3.929591985845883 2.900074003930259 L 3.736356337531217 2.902730579246464 L 3.667668848149371 3.0138323938239897 L 3.8062815882413314 3.099528213909912 L 3.7833857584473827 3.13656215210242 Z M 3.6348673600360066 2.9935532302922065 L 3.7107506816388076 2.8708121779970357 Q 3.7244881795151765 2.8485918150815306 3.72245946730353 2.8246681555211226 Q 3.7204307550918827 2.800744495960714 3.706151561152998 2.7794849164386326 Q 3.691872367214113 2.758225336916551 3.669652004298608 2.7444878390401817 Q 3.6469025851232098 2.730423257881042 3.621213907623088 2.7288013151278245 Q 3.5955252301229654 2.727179372374607 3.572991257585326 2.7370143269587883 Q 3.5504572850476865 2.7468492815429695 3.5373739537368585 2.7680115319386887 L 3.463453131830682 2.8875782466745017 L 3.6348673600360066 2.9935532302922065 Z M 4.015616371645832 2.7221390117438413 L 3.6124182003659304 2.541973923348384 L 3.6301809555598488 2.5022219909686756 L 4.03337912683975 2.6823870793641325 L 4.015616371645832 2.7221390117438413 Z M 3.771703488647603 2.371526593231796 L 4.120022600135672 2.4678113090290696 L 4.108422031967326 2.5097774670396804 L 3.682765286431131 2.3921145613321686 L 3.6923771857706176 2.3573426018376624 L 4.124517618752488 2.1760755550193243 L 3.7702033418343315 2.078133615198001 L 3.7818039100026777 2.0361674571873905 L 4.206861138995864 2.1536646404924973 L 4.196089182839542 2.1926332157880646 L 3.771703488647603 2.371526593231796 Z M 4.252335828351094 1.7609819348017268 Q 4.250031676431351 1.8050837842859688 4.229106892257073 1.8419842939336677 Q 4.208182108082796 1.8788848035813663 4.174421784004359 1.9051491321301588 Q 4.140661459925923 1.9314134606789515 4.10011258543261 1.9445547225029005 Q 4.0595637109392975 1.9576959843268498 4.017325319883967 1.9554891909389271 Q 3.9726023175900873 1.9531525861752441 3.933333056045018 1.935841133905 Q 3.894063794499949 1.9185296816347557 3.86443407915145 1.8895763158137164 Q 3.834804363802951 1.860622949992677 3.818738102959874 1.822412648940183 Q 3.8026718421167978 1.7842023478876892 3.8049759940365404 1.740100498403447 Q 3.8083835426502444 1.6748794533915397 3.837235001164687 1.6352788402449054 Q 3.86608645967913 1.595678227098271 3.910049400238059 1.5767982778024685 L 3.9306584478122364 1.6115088319047195 Q 3.8885589656822193 1.630486139732342 3.867453416478883 1.664885811719522 Q 3.8463478672755476 1.699285483706702 3.8440761681997446 1.7427661803813068 Q 3.8421614504072825 1.7794141961499024 3.856148760561061 1.8097302757061708 Q 3.8701360707148393 1.8400463552624395 3.895121092025641 1.8625285702355865 Q 3.9201061133364425 1.8850107852087332 3.952459287478264 1.8976009601062067 Q 3.9848124616200855 1.91019113500368 4.0202181717694065 1.9120409471082622 Q 4.05748734034764 1.9139881177446645 4.091368072542031 1.9033012887027125 Q 4.125248804736423 1.8926144596607604 4.152227401562149 1.870978598727695 Q 4.179205998387874 1.8493427377946299 4.195377052345441 1.819979468359816 Q 4.211548106303007 1.790616198925002 4.213365465563649 1.7558316415853181 Q 4.2154749004197525 1.7154567089588992 4.197169699055065 1.6783751285718898 Q 4.178864497690378 1.64129354818488 4.138346107363869 1.6061656558861852 L 4.1843114152770235 1.608567166337748 Q 4.2568143208148195 1.6752628470717914 4.252335828351094 1.7609819348017268 Z M 4.073389233878259 1.6096232410224303 L 4.068261684535733 1.70776538494511 L 4.034719432815323 1.7060129313723478 L 4.041761699950312 1.5712227716810725 L 4.258544030513699 1.5825488142161466 L 4.256629312721237 1.619196829984742 L 4.073389233878259 1.6096232410224303 Z" fill="#3682ae" fill-rule="nonzero"></path></g><g clip-path="url(&quot;#SvgjsClipPath1003&quot;)"><g clip-path="url(&quot;#SvgjsClipPath1000&quot;)"><path d=" M 2.6739053054408832 0.7402493676102597 C 2.6739053054408832 0.7402493676102597 2.715151925685668 0.48701734411057784 2.3981543268313303 0.2919293280716517 C 2.1728994086640863 0.15331845924587081 1.8122366080292143 0.04565889737081252 1.2992031706422105 0.19466313009345693 C 1.2992031706422105 0.19466313009345693 0.8258802273894498 0.01640713420196701 0.359159358058596 0.25140174558073725 C 0.6417411953299238 0.29457669434726785 0.7473743780804364 0.5259434334224159 0.7473743780804364 0.5259434334224159 C 0.7473743780804364 0.5259434334224159 0.45819046688720166 0.7945367180275249 0.3497138166554717 1.2326594948748706 C 0.2817974324489231 1.5077568027990862 0.30546031125813444 1.9360745193663715 0.537186569210218 2.30762093691211 C 0.7398244816647903 2.6324625839904967 1.1268628944530237 2.895205515961836 1.657087870864399 2.9875691838000007 C 1.657087870864399 2.9875691838000007 1.7727875821691064 3.20151559911091 2.102629809990323 3.1957632970799414 C 2.102629809990323 3.1957632970799414 2.034092438632704 3.0271489437971764 2.0982828999328302 2.8879170878203255 C 2.127011726553406 2.8257856891790123 2.1771809516530456 2.761333759604751 2.229474606480032 2.7157729128367394 C 2.3645229700707247 2.5980141388732196 2.490191159326826 2.518789251810335 2.490191159326826 2.518789251810335 C 2.201105298736392 2.518789251810335 1.9334271530907556 2.5827509283705927 1.7021257810841415 2.7947690151597557 C 1.7021257810841415 2.7947690151597557 1.4772303817938328 2.7818917026586103 1.2975363103946007 2.6019361629852433 C 1.123431123355003 2.429465152658989 1.0018810594165264 2.180253203874132 0.9863236971054979 1.9236220928106957 C 1.0983628525723164 2.0039909035729204 1.2275281799949729 1.9719283564571244 1.2275281799949729 1.9719283564571244 C 0.9997239461549133 1.8048828128191696 1.0788507826149971 1.4644511198954882 1.0826420725899537 1.4442853792528314 C 1.08643336256491 1.4241850056787084 1.107252773892904 1.3665966183004898 1.11418168315748 1.3523139138258693 C 1.447161530268316 0.662625973726452 2.350109531459037 0.9629222865704214 2.6123948939506407 1.0610382564395548 C 2.890727871767276 1.1650372624767242 3.012637454582688 1.1071547232901036 3.032182208074274 1.052442486927369 C 3.046726380823029 1.0114246514224512 2.928248569105638 0.884841323206877 2.6739053054408832 0.7402493676102597 Z" fill="#3682ae" transform="matrix(1,0,0,1,0,0)" fill-rule="nonzero"></path></g></g></g><defs><clipPath id="SvgjsClipPath1003"><path d=" M 0 0 h 3.2683534266866507 v 3.2683534266866507 h -3.2683534266866507 Z"></path></clipPath><clipPath id="SvgjsClipPath1000"><path d=" M 0 0 L 3.2683534266866507 0 L 3.2683534266866507 3.2683534266866507 L 0 3.2683534266866507 Z"></path></clipPath></defs></svg>